<svg width="48" height="76" viewBox="0 0 48 76" fill="none" xmlns="http://www.w3.org/2000/svg">
<path d="M24.4486 42.4395C23.2569 44.7042 21.3124 46.9761 18.6978 47.7712C16.3665 48.4799 13.6602 47.9187 11.2633 48.1166C9.73609 48.2425 9.00217 49.7517 10.1471 50.8076C10.6382 51.2609 16.0248 54.9359 16.3971 54.9934C17.0618 55.096 17.677 54.8873 18.0259 54.2946C18.9406 52.7413 17.1472 51.9966 16.1444 51.2672C19.0468 51.1368 21.6101 50.1915 23.783 48.2695C24.5359 47.6039 25.1304 46.8034 25.8337 46.0938C27.2215 49.9208 31.5989 51.7115 35.2739 49.8218C35.5023 49.704 36.4557 48.9755 36.5313 48.9773C36.6257 48.98 37.5116 50.1888 37.7527 50.4137C40.2206 52.717 43.9226 52.628 46.4095 50.4119C46.2665 52.8547 46.36 55.3244 46.2314 57.7663C45.8123 65.745 41.1686 70.9579 33.9527 73.8639C23.3801 78.1208 11.1131 76.0414 5.25973 65.637C3.93221 61.3415 2.02816 57.0945 0.732113 52.8061C-0.536952 48.6076 -0.00270348 46.8961 1.72146 43.0727C2.41041 41.5455 3.01481 40.0228 4.67962 39.2403C6.08089 38.581 7.63507 38.7807 9.1056 38.7645C12.1438 38.7303 15.2324 38.8185 18.2337 38.7636L25.6934 38.7735L25.7644 38.8392C25.5504 40.0965 25.0422 41.3152 24.4495 42.4413L24.4486 42.4395Z" fill="#333333"/>
<path d="M16.1336 36.1005L7.95795 36.042L8.00652 4.20564C8.76022 -0.991142 15.9258 -1.49301 17.3846 3.54907C17.7408 12.3075 17.4386 21.1091 17.5402 29.8828L16.1345 36.0996L16.1336 36.1005Z" fill="#333333"/>
<path d="M37.3101 30.1446C38.6952 31.7572 38.0782 33.5075 37.7185 35.3585C37.3749 37.1258 36.9144 38.9768 36.525 40.7801C36.1355 42.5834 36.0177 45.5694 34.397 46.7854C32.3193 48.345 29.0554 47.2423 28.5661 44.6673C28.299 43.2643 29.586 38.0198 29.9548 36.3181C30.2597 34.9124 30.8317 31.4289 31.5674 30.3883C32.8896 28.5203 35.8243 28.4141 37.3092 30.1437L37.3101 30.1446Z" fill="#333333"/>
<path d="M46.2116 32.7115C48.6049 34.477 46.9221 38.0719 46.4535 40.3591C46.0398 42.381 45.8428 44.679 45.2169 46.6784C44.0206 50.4946 38.2455 49.5853 38.8679 44.9614C39.1908 42.5636 40.0165 39.4148 40.5255 37.0817C40.7675 35.9727 40.9851 34.2387 41.6435 33.3465C42.6832 31.938 44.813 31.679 46.2125 32.7124L46.2116 32.7115Z" fill="#333333"/>
<path d="M26.6521 26.0091C28.4734 27.1532 28.7918 29.0185 28.4545 30.9945C28.1631 32.7061 27.6397 34.3952 27.3663 36.1122H18.7086L18.7122 35.7317C19.4137 33.4103 19.5693 30.677 20.2744 28.3898C21.0884 25.751 24.284 24.5215 26.653 26.0082L26.6521 26.0091Z" fill="#333333"/>
</svg>
