<svg xmlns="http://www.w3.org/2000/svg" version="1.1" xmlns:xlink="http://www.w3.org/1999/xlink" width="32" height="32"><svg width="32" height="32" viewBox="0 0 32 32" fill="none" xmlns="http://www.w3.org/2000/svg">
<rect width="32" height="32" rx="10" fill="white"></rect>
<path d="M16.2891 17.5053C15.9259 18.1955 15.3333 18.8879 14.5365 19.1302C13.826 19.3462 13.0012 19.1752 12.2707 19.2355C11.8053 19.2739 11.5816 19.7338 11.9306 20.0556C12.0802 20.1938 13.7218 21.3138 13.8353 21.3313C14.0379 21.3625 14.2254 21.2989 14.3317 21.1183C14.6105 20.6449 14.0639 20.418 13.7583 20.1957C14.6428 20.1559 15.424 19.8678 16.0863 19.2821C16.3157 19.0792 16.4969 18.8353 16.7112 18.619C17.1342 19.7853 18.4682 20.3311 19.5882 19.7552C19.6579 19.7193 19.9484 19.4973 19.9714 19.4978C20.0002 19.4986 20.2702 19.867 20.3437 19.9356C21.0958 20.6375 22.224 20.6104 22.9819 19.935C22.9384 20.6795 22.9669 21.4322 22.9277 22.1764C22.7999 24.608 21.3847 26.1967 19.1856 27.0823C15.9635 28.3796 12.225 27.7459 10.4411 24.5751C10.0365 23.2659 9.45621 21.9716 9.06123 20.6647C8.67446 19.3851 8.83728 18.8635 9.36274 17.6983C9.57271 17.2329 9.75691 16.7688 10.2643 16.5303C10.6913 16.3294 11.165 16.3903 11.6131 16.3853C12.5391 16.3749 13.4804 16.4018 14.395 16.3851L16.6685 16.3881L16.6901 16.4081C16.6249 16.7913 16.47 17.1627 16.2894 17.5059L16.2891 17.5053Z" fill="#333333"></path>
<path d="M13.755 15.5734L11.2634 15.5556L11.2782 5.85311C11.5079 4.26933 13.6917 4.11637 14.1363 5.65301C14.2448 8.32225 14.1527 11.0046 14.1837 13.6785L13.7553 15.5732L13.755 15.5734Z" fill="#333333"></path>
<path d="M20.2088 13.7583C20.6309 14.2498 20.4429 14.7832 20.3333 15.3473C20.2285 15.8859 20.0882 16.45 19.9695 16.9996C19.8508 17.5492 19.8149 18.4592 19.321 18.8298C18.6878 19.3051 17.6931 18.9691 17.544 18.1843C17.4625 17.7567 17.8548 16.1584 17.9672 15.6398C18.0601 15.2113 18.2344 14.1497 18.4586 13.8326C18.8616 13.2633 19.756 13.2309 20.2085 13.758L20.2088 13.7583Z" fill="#333333"></path>
<path d="M22.9216 14.5406C23.651 15.0787 23.1382 16.1743 22.9954 16.8713C22.8693 17.4875 22.8093 18.1878 22.6185 18.7972C22.2539 19.9602 20.4939 19.6831 20.6836 18.2739C20.782 17.5431 21.0336 16.5835 21.1887 15.8725C21.2625 15.5345 21.3288 15.006 21.5295 14.7341C21.8463 14.3049 22.4954 14.2259 22.9219 14.5409L22.9216 14.5406Z" fill="#333333"></path>
<path d="M16.9607 12.498C17.5157 12.8466 17.6128 13.4151 17.51 14.0173C17.4212 14.539 17.2616 15.0537 17.1783 15.577H14.5398L14.5409 15.4611C14.7547 14.7536 14.8021 13.9206 15.017 13.2235C15.265 12.4193 16.2389 12.0446 16.9609 12.4977L16.9607 12.498Z" fill="#333333"></path>
</svg><style>@media (prefers-color-scheme: light) { :root { filter: none; } }
@media (prefers-color-scheme: dark) { :root { filter: none; } }
</style></svg>